HIERARCHY
ROOT Root
{
  OFFSET 0.0 0.0 0.0
  CHANNELS 6 Xposition Yposition Zposition Zrotation Yrotation Xrotation
  JOINT Hips
  {
    OFFSET 0.0 100.0 0.0
    CHANNELS 6 Xposition Yposition Zposition Zrotation Yrotation Xrotation
    JOINT Spine1
    {
      OFFSET -0.013727 5.003763 -0.053727
      CHANNELS 3 Zrotation Yrotation Xrotation
      JOINT Spine2
      {
        OFFSET -0.0 7.125301 -0.029825
        CHANNELS 3 Zrotation Yrotation Xrotation
        JOINT Chest
        {
          OFFSET -1e-06 7.550063 -0.815971
          CHANNELS 3 Zrotation Yrotation Xrotation
          JOINT Neck1
          {
            OFFSET -0.181677 26.311295 -0.553348
            CHANNELS 3 Zrotation Yrotation Xrotation
            JOINT Neck2
            {
              OFFSET -3e-06 7.709397 2.302585
              CHANNELS 3 Zrotation Yrotation Xrotation
              JOINT Head
              {
                OFFSET -5e-06 6.128916 1.953709
                CHANNELS 3 Zrotation Yrotation Xrotation
                JOINT HeadEnd
                {
                  OFFSET 0.003598 16.065403 -1.835379
                  CHANNELS 3 Zrotation Yrotation Xrotation
                }
                JOINT Jaw
                {
                  OFFSET 0.002637 0.475592 3.094941
                  CHANNELS 3 Zrotation Yrotation Xrotation
                }
                JOINT LeftEye
                {
                  OFFSET 3.206381 5.380205 7.586883
                  CHANNELS 3 Zrotation Yrotation Xrotation
                }
                JOINT RightEye
                {
                  OFFSET -3.22244 5.361869 7.558234
                  CHANNELS 3 Zrotation Yrotation Xrotation
                }
              }
            }
          }
          JOINT LeftShoulder
          {
            OFFSET 1.621652 23.237164 5.113413
            CHANNELS 3 Zrotation Yrotation Xrotation
            JOINT LeftArm
            {
              OFFSET 14.919846 2e-06 -5.502326
              CHANNELS 3 Zrotation Yrotation Xrotation
              JOINT LeftForeArm
              {
                OFFSET 28.739307 0.0 -0.002588
                CHANNELS 3 Zrotation Yrotation Xrotation
                JOINT LeftHand
                {
                  OFFSET 27.093981 -1e-06 0.002609
                  CHANNELS 3 Zrotation Yrotation Xrotation
                  JOINT LeftHandThumb1
                  {
                    OFFSET 2.276482 -1.392045 3.191413
                    CHANNELS 3 Zrotation Yrotation Xrotation
                    JOINT LeftHandThumb2
                    {
                      OFFSET 4.012836 -1.828127 1.641654
                      CHANNELS 3 Zrotation Yrotation Xrotation
                      JOINT LeftHandThumb3
                      {
                        OFFSET 2.798515 0.0 -3e-06
                        CHANNELS 3 Zrotation Yrotation Xrotation
                        JOINT LeftHandThumbEnd
                        {
                          OFFSET 3.180793 -4e-06 4e-06
                          CHANNELS 3 Zrotation Yrotation Xrotation
                        }
                      }
                    }
                  }
                  JOINT LeftHandIndex1
                  {
                    OFFSET 3.247555 -0.531998 2.296169
                    CHANNELS 3 Zrotation Yrotation Xrotation
                    JOINT LeftHandIndex2
                    {
                      OFFSET 6.364578 0.01206 0.1786
                      CHANNELS 3 Zrotation Yrotation Xrotation
                      JOINT LeftHandIndex3
                      {
                        OFFSET 3.662364 0.0 0.0
                        CHANNELS 3 Zrotation Yrotation Xrotation
                        JOINT LeftHandIndex4
                        {
                          OFFSET 2.329242 4e-06 4e-06
                          CHANNELS 3 Zrotation Yrotation Xrotation
                          JOINT LeftHandIndexEnd
                          {
                            OFFSET 2.759615 -0.180537 -0.113024
                            CHANNELS 3 Zrotation Yrotation Xrotation
                          }
                        }
                      }
                    }
                  }
                  JOINT LeftHandMiddle1
                  {
                    OFFSET 3.163495 0.240981 1.000332
                    CHANNELS 3 Zrotation Yrotation Xrotation
                    JOINT LeftHandMiddle2
                    {
                      OFFSET 6.19078 -0.259278 -1.002548
                      CHANNELS 3 Zrotation Yrotation Xrotation
                      JOINT LeftHandMiddle3
                      {
                        OFFSET 4.35652 -4e-06 -1e-06
                        CHANNELS 3 Zrotation Yrotation Xrotation
                        JOINT LeftHandMiddle4
                        {
                          OFFSET 2.996877 -8e-06 0.0
                          CHANNELS 3 Zrotation Yrotation Xrotation
                          JOINT LeftHandMiddleEnd
                          {
                            OFFSET 2.304287 -0.294569 -0.031741
                            CHANNELS 3 Zrotation Yrotation Xrotation
                          }
                        }
                      }
                    }
                  }
                  JOINT LeftHandRing1
                  {
                    OFFSET 2.882643 -0.053652 -0.322543
                    CHANNELS 3 Zrotation Yrotation Xrotation
                    JOINT LeftHandRing2
                    {
                      OFFSET 5.854541 -0.486202 -1.373841
                      CHANNELS 3 Zrotation Yrotation Xrotation
                      JOINT LeftHandRing3
                      {
                        OFFSET 4.350578 0.0 3e-06
                        CHANNELS 3 Zrotation Yrotation Xrotation
                        JOINT LeftHandRing4
                        {
                          OFFSET 2.651321 7e-06 2e-06
                          CHANNELS 3 Zrotation Yrotation Xrotation
                          JOINT LeftHandRingEnd
                          {
                            OFFSET 1.936105 0.077687 -7.1e-05
                            CHANNELS 3 Zrotation Yrotation Xrotation
                          }
                        }
                      }
                    }
                  }
                  JOINT LeftHandPinky1
                  {
                    OFFSET 2.8655 -0.310005 -1.600378
                    CHANNELS 3 Zrotation Yrotation Xrotation
                    JOINT LeftHandPinky2
                    {
                      OFFSET 5.087849 -1.331141 -1.77123
                      CHANNELS 3 Zrotation Yrotation Xrotation
                      JOINT LeftHandPinky3
                      {
                        OFFSET 3.070974 4e-06 0.0
                        CHANNELS 3 Zrotation Yrotation Xrotation
                        JOINT LeftHandPinky4
                        {
                          OFFSET 1.549672 0.0 1e-06
                          CHANNELS 3 Zrotation Yrotation Xrotation
                          JOINT LeftHandPinkyEnd
                          {
                            OFFSET 1.944893 -0.157802 0.057219
                            CHANNELS 3 Zrotation Yrotation Xrotation
                          }
                        }
                      }
                    }
                  }
                }
              }
            }
          }
          JOINT RightShoulder
          {
            OFFSET -1.380118 23.180309 5.214158
            CHANNELS 3 Zrotation Yrotation Xrotation
            JOINT RightArm
            {
              OFFSET -15.037196 1.2e-05 -5.545604
              CHANNELS 3 Zrotation Yrotation Xrotation
              JOINT RightForeArm
              {
                OFFSET -28.736639 2e-06 -0.002597
                CHANNELS 3 Zrotation Yrotation Xrotation
                JOINT RightHand
                {
                  OFFSET -27.133619 -0.0 0.002613
                  CHANNELS 3 Zrotation Yrotation Xrotation
                  JOINT RightHandThumb1
                  {
                    OFFSET -2.274032 -1.383988 3.163127
                    CHANNELS 3 Zrotation Yrotation Xrotation
                    JOINT RightHandThumb2
                    {
                      OFFSET -4.011429 -1.827466 1.640914
                      CHANNELS 3 Zrotation Yrotation Xrotation
                      JOINT RightHandThumb3
                      {
                        OFFSET -2.794935 -4e-06 -3e-06
                        CHANNELS 3 Zrotation Yrotation Xrotation
                        JOINT RightHandThumbEnd
                        {
                          OFFSET -3.183852 4e-06 1e-06
                          CHANNELS 3 Zrotation Yrotation Xrotation
                        }
                      }
                    }
                  }
                  JOINT RightHandIndex1
                  {
                    OFFSET -3.253266 -0.520057 2.282866
                    CHANNELS 3 Zrotation Yrotation Xrotation
                    JOINT RightHandIndex2
                    {
                      OFFSET -6.341917 0.012471 0.178266
                      CHANNELS 3 Zrotation Yrotation Xrotation
                      JOINT RightHandIndex3
                      {
                        OFFSET -3.654871 -8e-06 -0.0
                        CHANNELS 3 Zrotation Yrotation Xrotation
                        JOINT RightHandIndex4
                        {
                          OFFSET -2.327586 0.0 1e-06
                          CHANNELS 3 Zrotation Yrotation Xrotation
                          JOINT RightHandIndexEnd
                          {
                            OFFSET -2.76179 -0.180656 -0.113078
                            CHANNELS 3 Zrotation Yrotation Xrotation
                          }
                        }
                      }
                    }
                  }
                  JOINT RightHandMiddle1
                  {
                    OFFSET -3.168106 0.246593 1.00103
                    CHANNELS 3 Zrotation Yrotation Xrotation
                    JOINT RightHandMiddle2
                    {
                      OFFSET -6.180828 -0.258836 -1.000895
                      CHANNELS 3 Zrotation Yrotation Xrotation
                      JOINT RightHandMiddle3
                      {
                        OFFSET -4.348901 0.0 -0.0
                        CHANNELS 3 Zrotation Yrotation Xrotation
                        JOINT RightHandMiddle4
                        {
                          OFFSET -3.00024 -4e-06 -2e-06
                          CHANNELS 3 Zrotation Yrotation Xrotation
                          JOINT RightHandMiddleEnd
                          {
                            OFFSET -2.30252 -0.29437 -0.031706
                            CHANNELS 3 Zrotation Yrotation Xrotation
                          }
                        }
                      }
                    }
                  }
                  JOINT RightHandRing1
                  {
                    OFFSET -2.88569 -0.067952 -0.308858
                    CHANNELS 3 Zrotation Yrotation Xrotation
                    JOINT RightHandRing2
                    {
                      OFFSET -5.854198 -0.48613 -1.373731
                      CHANNELS 3 Zrotation Yrotation Xrotation
                      JOINT RightHandRing3
                      {
                        OFFSET -4.33881 -4e-06 -0.0
                        CHANNELS 3 Zrotation Yrotation Xrotation
                        JOINT RightHandRing4
                        {
                          OFFSET -2.654903 -4e-06 4e-06
                          CHANNELS 3 Zrotation Yrotation Xrotation
                          JOINT RightHandRingEnd
                          {
                            OFFSET -1.933568 0.077527 -5.2e-05
                            CHANNELS 3 Zrotation Yrotation Xrotation
                          }
                        }
                      }
                    }
                  }
                  JOINT RightHandPinky1
                  {
                    OFFSET -2.866425 -0.342796 -1.584145
                    CHANNELS 3 Zrotation Yrotation Xrotation
                    JOINT RightHandPinky2
                    {
                      OFFSET -5.091371 -1.332055 -1.772385
                      CHANNELS 3 Zrotation Yrotation Xrotation
                      JOINT RightHandPinky3
                      {
                        OFFSET -3.062664 -4e-06 1e-06
                        CHANNELS 3 Zrotation Yrotation Xrotation
                        JOINT RightHandPinky4
                        {
                          OFFSET -1.546529 4e-06 -2e-06
                          CHANNELS 3 Zrotation Yrotation Xrotation
                          JOINT RightHandPinkyEnd
                          {
                            OFFSET -1.945119 -0.157718 0.057211
                            CHANNELS 3 Zrotation Yrotation Xrotation
                          }
                        }
                      }
                    }
                  }
                }
              }
            }
          }
        }
      }
    }
    JOINT LeftLeg
    {
      OFFSET 10.043214 -8.434526 2.595655
      CHANNELS 3 Zrotation Yrotation Xrotation
      JOINT LeftShin
      {
        OFFSET -1e-06 -43.221752 -0.802913
        CHANNELS 3 Zrotation Yrotation Xrotation
        JOINT LeftFoot
        {
          OFFSET 1e-06 -42.155094 -3.481523
          CHANNELS 3 Zrotation Yrotation Xrotation
          JOINT LeftToeBase
          {
            OFFSET 0.0 -5.059472 13.231529
            CHANNELS 3 Zrotation Yrotation Xrotation
            JOINT LeftToeEnd
            {
              OFFSET -0.009607 -1.647619 6.513017
              CHANNELS 3 Zrotation Yrotation Xrotation
            }
          }
        }
      }
    }
    JOINT RightLeg
    {
      OFFSET -10.047278 -8.29526 2.620317
      CHANNELS 3 Zrotation Yrotation Xrotation
      JOINT RightShin
      {
        OFFSET 1e-06 -43.362206 -0.805556
        CHANNELS 3 Zrotation Yrotation Xrotation
        JOINT RightFoot
        {
          OFFSET 2e-06 -42.117393 -3.478398
          CHANNELS 3 Zrotation Yrotation Xrotation
          JOINT RightToeBase
          {
            OFFSET -0.0 -5.079609 13.284196
            CHANNELS 3 Zrotation Yrotation Xrotation
            JOINT RightToeEnd
            {
              OFFSET 0.009532 -1.634378 6.460591
              CHANNELS 3 Zrotation Yrotation Xrotation
            }
          }
        }
      }
    }
  }
}
MOTION
Frames: 4
Frame Time: 0.03333333333333333
0.0 0.0 0.0 0.0 -0.0 0.0 -72.19725 94.297424 557.623596 -2.688371 -13.537698 -1.01472 0.643057 0.8548 -1.023804 0.192083 2.793777 -5.45983 0.583417 1.447775 12.363555 -1.082082 2.486079 3.398786 -0.841473 -0.25949 -3.460485 2.652735 -2.500488 -13.729445 7.7e-05 -2.2e-05 6e-06 -0.001863 0.032789 0.060945 0.63337 -3.709908 -10.678572 -0.646513 3.764711 -10.682255 -27.142971 0.598916 14.145796 -55.90424 1.074371 8.901598 0.838868 -20.896084 0.271874 -6.074521 10.655634 -1.346872 -5.882108 9.861288 0.70259 -10.936873 -0.360576 7.156208 1e-06 8.774828 -2e-06 -16.443266 18.39731 6.411806 -1.844033 2.498505 -2.50728 -10.163602 4.678946 4.621112 -20.976027 -3e-06 2e-06 -21.226288 2.451698 -3.594001 1e-06 -4e-06 -0.0 -1.362682 2.240799 -0.746323 -21.334921 0.584909 3.008325 -13.821218 -3e-06 3e-06 -23.887175 -0.249079 -0.839483 -61.037998 2.963952 -1.274621 -0.294025 1.679687 0.833256 -14.218212 0.093216 1.300583 -34.212063 -0.287563 0.967171 -20.033218 0.964537 1.212844 -1e-06 1e-06 -0.0 -3.440389 0.788234 0.501657 -15.928191 -3.167311 2.99971 -6.338829 -0.0 2e-06 -18.123455 3.648183 -4.905671 -5e-06 1e-06 -2e-06 9.135522 16.883518 11.731834 61.245926 26.050907 11.774923 -0.588045 40.319016 0.263666 1.038906 0.573453 -0.005852 2.243544 -5.255042 -3.18016 14.282904 -0.826596 6.952506 -3e-06 -12.690615 1e-06 15.573751 -17.870119 2.912656 1.665668 -1.955922 -2.8783 4.727801 -4.170591 4.993928 11.020536 2e-06 -2e-06 12.10906 -3.735718 -2.866787 -0.0 -0.0 -1e-06 1.291987 -1.92855 -1.498091 14.80014 0.567468 3.865611 14.242585 -1.341735 -6.660665 19.631987 0.143928 -0.648249 49.470184 -1.217008 -6.440617 0.353031 -1.511154 -0.031939 20.222803 3.684313 2.316629 18.787289 5e-06 -3e-06 10.751636 -0.479867 1.397906 1e-06 2e-06 -0.0 3.273809 0.305947 -0.580111 21.486832 11.830383 2.266132 8.162935 -0.0 -2e-06 18.399103 -3.798987 -4.940583 3e-06 1e-06 -1e-06 -0.459635 10.037531 -29.069111 0.008105 0.017746 10.98235 -2.690167 7.067251 1.609626 1.694844 -2.375432 -3.915473 -0.0 0.0 2e-06 -0.017645 -2.123755 21.996668 -0.225342 0.383726 10.983521 -1.956393 6.284465 -11.710199 -1.376618 0.832765 -7.182588 0.0 0.0 -1e-06 
0.0 0.0 0.0 0.0 -0.0 0.0 -72.295799 94.1306 562.432373 -1.279073 -12.835128 -0.625028 -0.227562 0.712275 -1.350064 0.016549 2.876221 -5.752015 0.052347 1.436953 12.012519 -1.013077 2.296441 3.221727 -0.83905 -0.622697 -3.434506 2.814399 -2.259352 -13.808328 7.7e-05 -2.2e-05 6e-06 0.003028 0.063828 0.046685 0.646964 -3.688108 -10.680036 -0.649241 3.805697 -10.705855 -26.756781 0.083164 13.638847 -56.193676 1.788956 7.476377 1.092013 -22.577061 0.30476 -3.492125 10.519913 -4.728046 -5.882108 9.861286 0.702591 -10.936873 -0.360575 7.156208 1e-06 8.774824 -1e-06 -16.4104 18.605194 6.2748 -1.844033 2.498505 -2.507279 -10.163603 4.678945 4.621109 -20.976028 -4e-06 3e-06 -21.226292 2.451697 -3.593999 -1e-06 -7e-06 0.0 -1.362682 2.240798 -0.746325 -21.334919 0.58491 3.008324 -13.821217 -3e-06 3e-06 -23.887175 -0.249079 -0.839483 -60.944767 2.948848 -1.722377 -0.294025 1.679688 0.833256 -14.21821 0.093215 1.30058 -34.212063 -0.287563 0.967171 -20.033218 0.964538 1.212842 -1e-06 0.0 0.0 -3.440389 0.788233 0.501656 -15.928191 -3.167309 2.999709 -6.338829 -1e-06 2e-06 -18.123446 3.648185 -4.90567 -5e-06 -0.0 -1e-06 9.259259 16.327887 11.241302 62.475994 24.200108 11.549345 -0.729857 41.476112 0.325758 -0.628163 1.738253 -1.831673 2.243543 -5.255037 -3.180158 14.282894 -0.826597 6.952504 0.0 -12.69061 -0.0 15.677484 -17.870943 2.924525 1.665666 -1.95592 -2.878299 4.7278 -4.17059 4.993925 11.020528 2e-06 -2e-06 12.109053 -3.735719 -2.866786 -1e-06 -1e-06 -1e-06 1.291987 -1.928549 -1.498088 14.800132 0.567465 3.865609 14.242577 -1.341739 -6.660658 19.631969 0.143923 -0.648247 49.6092 -1.226245 -6.351323 0.353029 -1.511151 -0.03194 20.222792 3.684306 2.316631 18.787273 -0.0 -3e-06 10.75163 -0.479873 1.397905 1e-06 2e-06 0.0 3.273807 0.305948 -0.580111 21.486814 11.83037 2.266132 8.16293 0.0 -1e-06 18.399088 -3.798988 -4.940578 5e-06 1e-06 -1e-06 -3.254521 8.819302 -32.688198 -0.157367 -0.137218 21.278343 0.400523 7.865929 4.493052 1.779282 -2.229636 -2.327119 -0.0 0.0 2e-06 -2.227867 -2.129098 21.436953 -0.204366 0.55456 15.40064 -0.04133 5.981025 -9.565542 -1.412382 0.920369 -11.376298 0.0 0.0 -1e-06 
0.0 0.0 0.0 0.0 -0.0 0.0 -72.363678 94.175652 566.535339 -0.250908 -11.445616 -0.315084 -0.703933 0.753106 -1.364696 -0.152511 3.028909 -5.776003 -0.862164 1.249613 11.555937 -0.633075 2.071996 3.217254 -0.899183 -0.798642 -3.437329 2.821697 -2.160975 -14.273282 7.7e-05 -2.2e-05 6e-06 0.016713 0.082781 0.046122 0.691123 -3.679087 -10.680287 -0.666875 3.830401 -10.741724 -25.233208 -0.885617 13.29285 -56.96545 2.393575 5.874604 1.254382 -26.189079 0.127256 0.129746 9.614534 -7.825579 -5.882111 9.861292 0.702591 -10.936881 -0.360575 7.15621 1e-06 8.774831 0.0 -16.215467 18.320047 6.058515 -1.844034 2.498506 -2.507279 -10.16361 4.678948 4.621112 -20.976044 -5e-06 2e-06 -21.226307 2.451698 -3.594002 -1e-06 -5e-06 0.0 -1.362682 2.240799 -0.746324 -21.33493 0.58491 3.008324 -13.821223 -4e-06 1e-06 -23.887192 -0.24908 -0.839483 -60.708313 2.780204 -2.135731 -0.294025 1.679688 0.833256 -14.21822 0.093215 1.300581 -34.212074 -0.287565 0.96717 -20.03323 0.964536 1.212843 0.0 -0.0 -1e-06 -3.440391 0.788234 0.501656 -15.928201 -3.167312 2.999709 -6.338831 -1e-06 2e-06 -18.123459 3.648185 -4.905674 -5e-06 0.0 -2e-06 9.114469 15.747123 11.511465 64.435661 22.766001 9.514171 -0.430525 41.54195 0.556941 -2.574338 3.008568 -3.378035 2.243542 -5.255037 -3.18016 14.282896 -0.826595 6.952507 -4e-06 -12.69061 2e-06 15.740608 -17.998203 2.971912 1.665667 -1.955922 -2.878299 4.727799 -4.170588 4.993929 11.020528 3e-06 -1e-06 12.109056 -3.735716 -2.866785 -1e-06 -1e-06 -0.0 1.291986 -1.92855 -1.498089 14.800136 0.567469 3.86561 14.242579 -1.341737 -6.660661 19.631973 0.143926 -0.648244 49.948429 -1.106563 -6.283075 0.353029 -1.511151 -0.03194 20.222801 3.684313 2.316632 18.787279 4e-06 1e-06 10.751633 -0.479869 1.397908 -0.0 2e-06 0.0 3.273809 0.305947 -0.580111 21.486824 11.830381 2.266135 8.16293 3e-06 1e-06 18.399092 -3.798987 -4.940576 3e-06 0.0 -1e-06 -4.856255 8.064593 -33.337711 -0.237463 -0.157059 26.723396 2.724655 7.490557 5.849836 1.809798 -2.109782 -0.5147 -0.0 -0.0 2e-06 -3.769838 -2.576142 19.71871 -0.165375 0.67402 21.550188 2.765403 5.725101 -5.1572 -1.511006 1.028004 -15.994526 0.0 0.0 -1e-06 
0.0 0.0 0.0 0.0 -0.0 0.0 -72.411179 94.495201 570.159607 0.573857 -10.050056 -0.107755 -1.115546 0.771006 -1.117891 -0.39773 3.066869 -5.630721 -1.544472 1.220347 11.083001 -0.20657 2.003501 3.21523 -0.972959 -1.185128 -3.383337 2.943841 -2.048972 -14.740889 7.7e-05 -2.2e-05 6e-06 0.015793 0.093853 0.05861 0.705136 -3.671381 -10.639319 -0.682889 3.844172 -10.707325 -23.323439 -1.855535 13.151526 -57.618057 2.657813 5.492115 1.357994 -30.9895 -0.06164 2.539523 8.361424 -10.194982 -5.882108 9.861289 0.70259 -10.936874 -0.360575 7.156208 -0.0 8.774828 -2e-06 -16.127979 18.271408 5.914544 -1.844033 2.498505 -2.507278 -10.163602 4.678946 4.62111 -20.97603 -3e-06 1e-06 -21.226292 2.451699 -3.594002 -0.0 -6e-06 -1e-06 -1.362682 2.240798 -0.746324 -21.334921 0.58491 3.008324 -13.821217 -2e-06 1e-06 -23.887178 -0.249078 -0.839484 -60.476311 2.676587 -2.302841 -0.294025 1.679688 0.833256 -14.218211 0.093215 1.300581 -34.212063 -0.287563 0.96717 -20.033218 0.964537 1.212843 0.0 -0.0 -0.0 -3.440389 0.788233 0.501656 -15.928192 -3.16731 2.999707 -6.338828 -0.0 0.0 -18.123453 3.648185 -4.905672 -5e-06 -0.0 -1e-06 8.417078 15.349122 11.843938 66.627769 21.627682 8.520294 0.031633 39.520164 0.65702 -3.804066 3.103883 -4.95838 2.243542 -5.255038 -3.180159 14.282894 -0.826596 6.9525 -1e-06 -12.690609 0.0 15.923731 -18.082407 2.895596 1.665668 -1.955923 -2.8783 4.727799 -4.17059 4.993923 11.020528 3e-06 -5e-06 12.109056 -3.735717 -2.866786 -1e-06 -1e-06 -0.0 1.291986 -1.92855 -1.49809 14.800129 0.567469 3.865605 14.242577 -1.341737 -6.66066 19.631969 0.143926 -0.648248 50.192318 -0.975599 -6.376324 0.353029 -1.51115 -0.031939 20.222792 3.68431 2.316626 18.787273 6e-06 -5e-06 10.751629 -0.479867 1.397904 1e-06 0.0 0.0 3.273806 0.305947 -0.580112 21.486816 11.830378 2.26613 8.162928 3e-06 -1e-06 18.399084 -3.798985 -4.940578 2e-06 1e-06 -1e-06 -6.127414 7.340785 -32.376148 -0.369807 -0.285957 28.929537 3.905808 7.300481 2.468012 1.829254 -2.037493 0.458217 0.0 -0.0 2e-06 -4.820641 -3.343742 16.217247 -0.117886 0.856868 30.665068 4.84686 4.51704 -0.367978 -1.558643 1.039908 -16.657175 -0.0 -0.0 -2e-06 
